<svg width="173" height="72" viewBox="0 0 173 72" fill="none" xmlns="http://www.w3.org/2000/svg">
<path d="M83.9863 11.984L98.2903 30H100.306V7.6H97.8423V25.616L83.5383 7.6H81.5223V30H83.9863V11.984ZM107.554 19.664H122.978V17.584H107.554V19.664ZM107.554 9.488H122.978V7.344H107.554V9.488ZM107.554 27.856H122.978V30H107.554V27.856ZM138.69 30.224C145.442 30.224 150.466 25.36 150.466 18.8C150.466 12.24 145.442 7.376 138.69 7.376C131.906 7.376 126.882 12.272 126.882 18.8C126.882 25.328 131.906 30.224 138.69 30.224ZM138.69 28.016C133.346 28.016 129.346 24.08 129.346 18.8C129.346 13.52 133.346 9.584 138.69 9.584C144.002 9.584 148.002 13.52 148.002 18.8C148.002 24.08 144.002 28.016 138.69 28.016ZM67.1529 60.224C72.8809 60.224 75.5049 57.344 75.5049 54.048C75.5049 45.888 61.7449 49.568 61.7449 43.488C61.7449 41.28 63.5369 39.488 67.6009 39.488C69.5849 39.488 71.8569 40.096 73.7449 41.344L74.6089 39.392C72.7849 38.144 70.1609 37.376 67.6009 37.376C61.9049 37.376 59.3449 40.256 59.3449 43.584C59.3449 51.872 73.1049 48.128 73.1049 54.208C73.1049 56.384 71.2809 58.112 67.1209 58.112C64.1769 58.112 61.3289 56.96 59.7289 55.392L58.7689 57.28C60.4649 59.008 63.7609 60.224 67.1529 60.224ZM88.4724 40.16L97.3364 60H99.9284L89.6884 37.6H87.2564L77.0484 60H79.6084L88.4724 40.16ZM112.188 60.224C117.916 60.224 121.404 56.864 121.404 50.4V37.6H119.004V50.336C119.004 55.584 116.54 58.016 112.188 58.016C107.868 58.016 105.404 55.584 105.404 50.336V37.6H102.94V50.4C102.94 56.864 106.428 60.224 112.188 60.224ZM128.475 48.8V60H137.627C144.795 60 149.659 55.392 149.659 48.8C149.659 42.208 144.795 37.6 137.627 37.6H128.475V39.744H137.499C143.387 39.744 147.195 43.456 147.195 48.8C147.195 54.144 143.387 57.856 137.499 57.856H130.939V48.8H128.475ZM154.913 49.664H170.337V47.584H154.913V49.664ZM154.913 39.488H170.337V37.344H154.913V39.488ZM154.913 57.856H170.337V60H154.913V57.856Z" fill="#1664C6"/>
<rect x="16" y="9" width="4" height="20" rx="2" fill="#2DE2FF"/>
<rect x="31" y="40" width="4" height="20" rx="2" fill="#2DE2FF"/>
<rect x="16" y="40" width="4" height="20" rx="2" fill="#2DE2FF"/>
<rect y="25" width="3" height="19" rx="1.5" fill="#2DE2FF"/>
<rect x="48" y="25" width="3" height="19" rx="1.5" fill="#2DE2FF"/>
<rect y="25" width="20" height="4" rx="2" fill="#2DE2FF"/>
<rect x="31" y="25" width="20" height="4" rx="2" fill="#2DE2FF"/>
<rect x="16" y="57" width="19" height="3" rx="1.5" fill="#2DE2FF"/>
<rect y="40" width="20" height="4" rx="2" fill="#2DE2FF"/>
<rect x="31" y="40" width="20" height="4" rx="2" fill="#2DE2FF"/>
<rect x="16" y="9" width="19" height="3" rx="1.5" fill="#2DE2FF"/>
<rect x="31" y="16" width="4" height="13" rx="2" fill="#2DE2FF"/>
</svg>
