<svg width="256" height="72" viewBox="0 0 256 72" fill="none" xmlns="http://www.w3.org/2000/svg">
<path d="M63.58 26.984L77.884 45H79.9V22.6H77.436V40.616L63.132 22.6H61.116V45H63.58V26.984ZM87.1473 34.664H102.571V32.584H87.1473V34.664ZM87.1473 24.488H102.571V22.344H87.1473V24.488ZM87.1473 42.856H102.571V45H87.1473V42.856ZM118.284 45.224C125.036 45.224 130.06 40.36 130.06 33.8C130.06 27.24 125.036 22.376 118.284 22.376C111.5 22.376 106.476 27.272 106.476 33.8C106.476 40.328 111.5 45.224 118.284 45.224ZM118.284 43.016C112.94 43.016 108.94 39.08 108.94 33.8C108.94 28.52 112.94 24.584 118.284 24.584C123.596 24.584 127.596 28.52 127.596 33.8C127.596 39.08 123.596 43.016 118.284 43.016ZM149.95 45.224C155.678 45.224 158.302 42.344 158.302 39.048C158.302 30.888 144.542 34.568 144.542 28.488C144.542 26.28 146.334 24.488 150.398 24.488C152.382 24.488 154.654 25.096 156.542 26.344L157.406 24.392C155.582 23.144 152.958 22.376 150.398 22.376C144.702 22.376 142.142 25.256 142.142 28.584C142.142 36.872 155.902 33.128 155.902 39.208C155.902 41.384 154.078 43.112 149.918 43.112C146.974 43.112 144.126 41.96 142.526 40.392L141.566 42.28C143.262 44.008 146.558 45.224 149.95 45.224ZM171.269 25.16L180.133 45H182.725L172.485 22.6H170.053L159.845 45H162.405L171.269 25.16ZM194.985 45.224C200.713 45.224 204.201 41.864 204.201 35.4V22.6H201.801V35.336C201.801 40.584 199.337 43.016 194.985 43.016C190.665 43.016 188.201 40.584 188.201 35.336V22.6H185.737V35.4C185.737 41.864 189.225 45.224 194.985 45.224ZM211.272 33.8V45H220.424C227.592 45 232.456 40.392 232.456 33.8C232.456 27.208 227.592 22.6 220.424 22.6H211.272V24.744H220.296C226.184 24.744 229.992 28.456 229.992 33.8C229.992 39.144 226.184 42.856 220.296 42.856H213.736V33.8H211.272ZM237.71 34.664H253.134V32.584H237.71V34.664ZM237.71 24.488H253.134V22.344H237.71V24.488ZM237.71 42.856H253.134V45H237.71V42.856Z" fill="#1664C6"/>
<rect x="16" y="9" width="4" height="20" rx="2" fill="#2DE2FF"/>
<rect x="31" y="40" width="4" height="20" rx="2" fill="#2DE2FF"/>
<rect x="16" y="40" width="4" height="20" rx="2" fill="#2DE2FF"/>
<rect y="25" width="3" height="19" rx="1.5" fill="#2DE2FF"/>
<rect x="48" y="25" width="3" height="19" rx="1.5" fill="#2DE2FF"/>
<rect y="25" width="20" height="4" rx="2" fill="#2DE2FF"/>
<rect x="31" y="25" width="20" height="4" rx="2" fill="#2DE2FF"/>
<rect x="16" y="57" width="19" height="3" rx="1.5" fill="#2DE2FF"/>
<rect y="40" width="20" height="4" rx="2" fill="#2DE2FF"/>
<rect x="31" y="40" width="20" height="4" rx="2" fill="#2DE2FF"/>
<rect x="16" y="9" width="19" height="3" rx="1.5" fill="#2DE2FF"/>
<rect x="31" y="16" width="4" height="13" rx="2" fill="#2DE2FF"/>
</svg>
